REM DIRINDEX 1\5,1\2\6,1\2\7,1\3\8,1\3\9,1\4\10,1\4\11,1\4\12
REM DIRNAME folder01,folder02,folder03,folder04,folder05,folder06,folder07,folder08,folder09,folder10,folder11,folder12
TITLE ""
FILE "EJE_DB3000_5th_5C_23.mp3" MP3
  TRACK 01 AUDIO
    TITLE "0:"
    INDEX 01 00:00:00
  TRACK 02 AUDIO
    TITLE "10:cjc026_11022"
    INDEX 01 00:00:05
  TRACK 03 AUDIO
    TITLE "0:"
    INDEX 01 00:04:05
  TRACK 04 AUDIO
    TITLE "11:cjc026_11023"
    INDEX 01 00:04:33
  TRACK 05 AUDIO
    TITLE "0:"
    INDEX 01 00:05:67
  TRACK 06 AUDIO
    TITLE "12:cjc026_11024"
    INDEX 01 00:06:18
  TRACK 07 AUDIO
    TITLE "0:"
    INDEX 01 00:10:18
  TRACK 08 AUDIO
    TITLE "10:cjc026_11025"
    INDEX 01 00:10:45
  TRACK 09 AUDIO
    TITLE "0:"
    INDEX 01 00:11:42
  TRACK 10 AUDIO
    TITLE "11:cjc026_11026"
    INDEX 01 00:11:68
  TRACK 11 AUDIO
    TITLE "0:"
    INDEX 01 00:13:04
  TRACK 12 AUDIO
    TITLE "12:cjc026_11027"
    INDEX 01 00:13:28
  TRACK 13 AUDIO
    TITLE "0:"
    INDEX 01 00:14:27
  TRACK 14 AUDIO
    TITLE "10:cjc026_11028"
    INDEX 01 00:14:53
  TRACK 15 AUDIO
    TITLE "0:"
    INDEX 01 00:16:36
  TRACK 16 AUDIO
    TITLE "11:cjc026_11029"
    INDEX 01 00:16:61
  TRACK 17 AUDIO
    TITLE "0:"
    INDEX 01 00:18:50
  TRACK 18 AUDIO
    TITLE "12:cjc026_11030"
    INDEX 01 00:19:01
  TRACK 19 AUDIO
    TITLE "0:"
    INDEX 01 00:20:57
  TRACK 20 AUDIO
    TITLE "10:cjc026_11031"
    INDEX 01 00:21:09
  TRACK 21 AUDIO
    TITLE "0:"
    INDEX 01 00:22:13
  TRACK 22 AUDIO
    TITLE "11:cjc026_11032"
    INDEX 01 00:22:38
  TRACK 23 AUDIO
    TITLE "0:"
    INDEX 01 00:24:25
  TRACK 24 AUDIO
    TITLE "12:cjc026_11033"
    INDEX 01 00:24:51
  TRACK 25 AUDIO
    TITLE "0:"
    INDEX 01 00:25:52
  TRACK 26 AUDIO
    TITLE "10:cjc026_11034"
    INDEX 01 00:26:05
  TRACK 27 AUDIO
    TITLE "0:"
    INDEX 01 00:28:12
  TRACK 28 AUDIO
    TITLE "11:cjc026_11035"
    INDEX 01 00:28:39
  TRACK 29 AUDIO
    TITLE "0:"
    INDEX 01 00:30:32
  TRACK 30 AUDIO
    TITLE "12:cjc026_11036"
    INDEX 01 00:30:59
  TRACK 31 AUDIO
    TITLE "0:"
    INDEX 01 00:32:66
  TRACK 32 AUDIO
    TITLE "10:cjc026_11037"
    INDEX 01 00:33:19
  TRACK 33 AUDIO
    TITLE "0:"
    INDEX 01 00:34:30
  TRACK 34 AUDIO
    TITLE "11:cjc026_11038"
    INDEX 01 00:34:57
  TRACK 35 AUDIO
    TITLE "0:"
    INDEX 01 00:36:19
  TRACK 36 AUDIO
    TITLE "12:cjc026_11039"
    INDEX 01 00:36:44
  TRACK 37 AUDIO
    TITLE "0:"
    INDEX 01 00:37:56
  TRACK 38 AUDIO
    TITLE "10:cjc026_11040"
    INDEX 01 00:38:10
  TRACK 39 AUDIO
    TITLE "0:"
    INDEX 01 00:39:27
  TRACK 40 AUDIO
    TITLE "11:cjc026_11041"
    INDEX 01 00:39:54
  TRACK 41 AUDIO
    TITLE "0:"
    INDEX 01 00:40:46
  TRACK 42 AUDIO
    TITLE "12:cjc026_11042"
    INDEX 01 00:40:72
  TRACK 43 AUDIO
    TITLE "0:"
    INDEX 01 00:42:14
  TRACK 44 AUDIO
    TITLE "10:cjc026_11043"
    INDEX 01 00:42:43
  TRACK 45 AUDIO
    TITLE "0:"
    INDEX 01 00:43:74
  TRACK 46 AUDIO
    TITLE "11:cjc026_11044"
    INDEX 01 00:44:26
  TRACK 47 AUDIO
    TITLE "0:"
    INDEX 01 00:45:59
  TRACK 48 AUDIO
    TITLE "12:cjc026_11045"
    INDEX 01 00:46:09
  TRACK 49 AUDIO
    TITLE "0:"
    INDEX 01 00:47:40
  TRACK 50 AUDIO
    TITLE "10:cjc026_11046"
    INDEX 01 00:47:70
  TRACK 51 AUDIO
    TITLE "0:"
    INDEX 01 00:49:18
  TRACK 52 AUDIO
    TITLE "11:cjc026_11047"
    INDEX 01 00:49:45
  TRACK 53 AUDIO
    TITLE "0:"
    INDEX 01 00:50:41
  TRACK 54 AUDIO
    TITLE "12:cjc026_11048"
    INDEX 01 00:50:70
  TRACK 55 AUDIO
    TITLE "0:"
    INDEX 01 00:52:18
  TRACK 56 AUDIO
    TITLE "10:cjc026_11049"
    INDEX 01 00:52:43
  TRACK 57 AUDIO
    TITLE "0:"
    INDEX 01 00:53:72
  TRACK 58 AUDIO
    TITLE "11:cjc026_11050"
    INDEX 01 00:54:25
  TRACK 59 AUDIO
    TITLE "0:"
    INDEX 01 00:55:44
  TRACK 60 AUDIO
    TITLE "12:cjc026_11051"
    INDEX 01 00:55:69
  TRACK 61 AUDIO
    TITLE "0:"
    INDEX 01 00:57:21
  TRACK 62 AUDIO
    TITLE "10:cjc026_11052"
    INDEX 01 00:57:48
  TRACK 63 AUDIO
    TITLE "0:"
    INDEX 01 00:59:22
  TRACK 64 AUDIO
    TITLE "11:cjc026_11053"
    INDEX 01 00:59:49
  TRACK 65 AUDIO
    TITLE "0:"
    INDEX 01 01:01:01
  TRACK 66 AUDIO
    TITLE "12:cjc026_11054"
    INDEX 01 01:01:29
  TRACK 67 AUDIO
    TITLE "0:"
    INDEX 01 01:03:02
  TRACK 68 AUDIO
    TITLE "10:cjc026_11055"
    INDEX 01 01:03:27
  TRACK 69 AUDIO
    TITLE "0:"
    INDEX 01 01:04:37
  TRACK 70 AUDIO
    TITLE "11:cjc026_11056"
    INDEX 01 01:04:64
  TRACK 71 AUDIO
    TITLE "0:"
    INDEX 01 01:06:12
  TRACK 72 AUDIO
    TITLE "12:cjc026_11057"
    INDEX 01 01:06:38
  TRACK 73 AUDIO
    TITLE "0:"
    INDEX 01 01:07:49
  TRACK 74 AUDIO
    TITLE "10:cjc026_11058"
    INDEX 01 01:07:74
  TRACK 75 AUDIO
    TITLE "0:"
    INDEX 01 01:09:10
  TRACK 76 AUDIO
    TITLE "11:cjc026_11059"
    INDEX 01 01:09:38
  TRACK 77 AUDIO
    TITLE "0:"
    INDEX 01 01:10:43
  TRACK 78 AUDIO
    TITLE "12:cjc026_11060"
    INDEX 01 01:10:69
  TRACK 79 AUDIO
    TITLE "0:"
    INDEX 01 01:12:05
